<?xml version="1.0" standalone="no"?>
<!DOCTYPE svg PUBLIC "-//W3C//DTD SVG 20010904//EN"
 "http://www.w3.org/TR/2001/REC-SVG-20010904/DTD/svg10.dtd">
<svg version="1.0" xmlns="http://www.w3.org/2000/svg"
 width="260.000000pt" height="260.000000pt" viewBox="0 0 260.000000 260.000000"
 preserveAspectRatio="xMidYMid meet">
<metadata>
Created by potrace 1.14, written by Peter Selinger 2001-2017
</metadata>
<g transform="translate(0.000000,260.000000) scale(0.100000,-0.100000)"
fill="#000000" stroke="none">
<path d="M787 2494 c-1 -1 -26 -4 -55 -8 -68 -8 -145 -38 -200 -77 -52 -37
-92 -76 -92 -89 0 -6 -3 -10 -7 -10 -18 0 -62 -101 -78 -178 -7 -33 -8 -114
-2 -142 13 -58 20 -86 26 -95 3 -5 6 -12 7 -15 2 -16 29 -60 36 -60 4 0 8 -6
8 -14 0 -25 148 -144 173 -138 4 1 7 -3 7 -8 0 -6 11 -10 24 -10 14 0 27 -4
30 -8 12 -20 236 -19 236 1 0 5 4 6 8 3 13 -8 127 56 168 94 53 49 109 140
121 195 14 72 18 106 17 135 -2 49 -13 110 -21 124 -4 6 -8 16 -9 23 -3 18
-46 86 -84 132 -58 72 -54 78 50 77 93 -1 97 1 96 44 l-1 25 -228 1 c-125 0
-228 -1 -230 -2z"/>
<path d="M1404 1304 l1 -1199 590 0 590 0 -1 715 c0 393 -4 740 -8 770 -11 78
-51 210 -85 283 -34 70 -81 156 -96 173 -5 7 -26 31 -45 55 -116 145 -296 276
-463 335 -118 42 -196 56 -338 61 l-146 6 1 -1199z"/>
<path d="M1133 1396 c-24 -30 -118 -83 -162 -91 -19 -3 -42 -10 -52 -16 -10
-5 -22 -9 -26 -8 -4 1 -10 0 -13 -1 -9 -3 -45 -10 -67 -12 -13 -1 -23 -5 -23
-9 0 -4 -15 -10 -34 -13 -41 -8 -167 -72 -249 -128 -123 -84 -225 -189 -312
-321 -120 -184 -180 -379 -184 -595 l-2 -98 573 0 573 1 1 101 c0 56 4 108 7
117 3 8 3 18 0 21 -5 5 -8 437 -3 461 1 6 2 15 0 20 -5 27 -1 455 4 464 4 5 3
12 -2 15 -5 3 -7 30 -5 60 1 31 1 56 -1 56 -3 0 -13 -11 -23 -24z"/>
</g>
</svg>
