<svg id="Layer_2" enable-background="new 0 0 32 32" height="512" viewBox="0 0 32 32" width="512" xmlns="http://www.w3.org/2000/svg"><g><path d="m1.07001 32h29.88c1.39001-.01001 1.39996-2.12 0-2.13h-.67999v-25.46003c-.01001-.40997-.26001-.79998-.63001-.96997-.58002-.21002-1-.01001-1.44.44-2.48004 2.33997-8 6.19995-11.89001 8.14996-3.85999 2.02002-7.96002 3.62-12.14001 4.60004-.29999.07001-.54999.28998-.69001.56-.07996.14996-.10999.32001-.13.47998v12.20002h-1.20997v-28.82001c-.02001-1.39002-2.11999-1.40998-2.14001 0v29.88c0 .58997.47998 1.07001 1.07001 1.07001zm16.80999-18.39001c1.39001-.75 2.72998-1.54999 4.06-2.37v18.63h-4.06zm-12.39001 4.89001c1.35999-.34003 2.72003-.77002 4.06-1.21002v12.58002h-4.06z"/></g></svg>