<svg enable-background="new 0 0 32 32" height="512" viewBox="0 0 32 32" width="512" xmlns="http://www.w3.org/2000/svg"><g id="_x30_1"><path d="m29 30h-26c-.5522 0-1-.4478-1-1v-26c0-.5522.4478-1 1-1s1 .4478 1 1v25h25c.5522 0 1 .4478 1 1s-.4478 1-1 1z"/><path d="m11 26c-.5522 0-1-.4478-1-1v-9h-2v9c0 .5522-.4478 1-1 1s-1-.4478-1-1v-10c0-.5522.4478-1 1-1h4c.5522 0 1 .4478 1 1v10c0 .5522-.4478 1-1 1z"/><path d="m15 26c-.5522 0-1-.4478-1-1v-13h-2v13c0 .5522-.4478 1-1 1s-1-.4478-1-1v-14c0-.5522.4478-1 1-1h4c.5522 0 1 .4478 1 1v14c0 .5522-.4478 1-1 1z"/><path d="m29 26c-.5522 0-1-.4478-1-1v-13h-2v13c0 .5522-.4478 1-1 1s-1-.4478-1-1v-14c0-.5522.4478-1 1-1h4c.5522 0 1 .4478 1 1v14c0 .5522-.4478 1-1 1z"/><path d="m25 26c-.5522 0-1-.4478-1-1v-19h-2v19c0 .5522-.4478 1-1 1s-1-.4478-1-1v-20c0-.5522.4478-1 1-1h4c.5522 0 1 .4478 1 1v20c0 .5522-.4478 1-1 1z"/></g></svg>