<svg height="682.66669pt" viewBox="-21 -21 682.66669 682.66669" width="682.66669pt" xmlns="http://www.w3.org/2000/svg"><path d="m131.25 470c0-10.359375-8.390625-18.75-18.75-18.75h-93.75c-10.359375 0-18.75 8.390625-18.75 18.75v151.25c0 10.359375 8.390625 18.75 18.75 18.75h93.75c10.359375 0 18.75-8.390625 18.75-18.75zm0 0"/><path d="m282.5 338.75h-93.75c-10.359375 0-18.75 8.390625-18.75 18.75v263.75c0 10.359375 8.390625 18.75 18.75 18.75h93.75c10.359375 0 18.75-8.390625 18.75-18.75v-263.75c0-10.359375-8.390625-18.75-18.75-18.75zm0 0"/><path d="m451.25 301.25h-93.75c-10.359375 0-18.75 8.390625-18.75 18.75v301.25c0 10.359375 8.390625 18.75 18.75 18.75h93.75c10.359375 0 18.75-8.390625 18.75-18.75v-301.25c0-10.359375-8.390625-18.75-18.75-18.75zm0 0"/><path d="m621.25 151.25h-93.75c-10.359375 0-18.75 8.390625-18.75 18.75v451.25c0 10.359375 8.390625 18.75 18.75 18.75h93.75c10.359375 0 18.75-8.390625 18.75-18.75v-451.25c0-10.359375-8.390625-18.75-18.75-18.75zm0 0"/><path d="m66.875 412.5c31.015625 0 56.25-25.234375 56.25-56.25 0-5.269531-.960938-10.265625-2.320312-15.101562l73.054687-51.570313c9.171875 6.511719 20.3125 10.421875 32.390625 10.421875 28.457031 0 51.792969-21.3125 55.492188-48.773438l74.804687-15.75c9.902344 16.140626 27.550781 27.023438 47.828125 27.023438 31.015625 0 56.25-25.234375 56.25-56.25 0-7.5-1.539062-14.632812-4.210938-21.179688l89.738282-79.765624c8.046875 4.441406 17.148437 7.195312 26.972656 7.195312 31.015625 0 56.25-25.234375 56.25-56.25s-25.234375-56.25-56.25-56.25-56.25 25.234375-56.25 56.25c0 7.5 1.539062 14.632812 4.210938 21.179688l-89.738282 79.765624c-8.046875-4.441406-17.148437-7.195312-26.972656-7.195312-28.457031 0-51.792969 21.3125-55.492188 48.773438l-74.804687 15.75c-9.902344-16.140626-27.550781-27.023438-47.828125-27.023438-31.015625 0-56.25 25.234375-56.25 56.25 0 5.269531.960938 10.265625 2.320312 15.101562l-73.054687 51.570313c-9.171875-6.511719-20.3125-10.421875-32.390625-10.421875-31.015625 0-56.25 25.234375-56.25 56.25s25.234375 56.25 56.25 56.25zm0 0"/></svg>