<svg id="Layer_2" enable-background="new 0 0 32 32" viewBox="0 0 32 32" xmlns="http://www.w3.org/2000/svg"><g><path d="m30.92999 29.87h-28.79999v-1.68h24.54004c.58997 0 1.06-.48004 1.06-1.07001v-5.38c0-.59003-.47003-1.06-1.06-1.06h-24.54004v-2.37h19.20001c.59003 0 1.07001-.47003 1.07001-1.06v-5.38c0-.59003-.47998-1.07001-1.07001-1.07001h-19.20001v-2.35998h13.87c.59003 0 1.07001-.48004 1.07001-1.07001v-5.38c0-.59003-.47998-1.07001-1.07001-1.07001h-13.89996c-.07001-.51001-.49005-.91998-1.03003-.91998-.58997 0-1.07001.47998-1.07001 1.07001v29.85999c0 .58996.48004 1.07 1.07001 1.07h29.85999c.59002 0 1.07-.48004 1.07-1.07001 0-.59002-.47998-1.05999-1.07001-1.05999z"/></g></svg>