<svg id="Layer_2" enable-background="new 0 0 32 32" height="512" viewBox="0 0 32 32" width="512" xmlns="http://www.w3.org/2000/svg"><g><path d="m30.93335 29.86664h-28.79999v-28.79999c0-.58905-.47766-1.06665-1.06671-1.06665s-1.06665.4776-1.06665 1.06665v29.86664c0 .58911.4776 1.06671 1.06665 1.06671h29.8667c.58954 0 1.06665-.4776 1.06665-1.06671 0-.58905-.47711-1.06665-1.06665-1.06665z"/><path d="m7.77002 28.82996c1.81 0 3.27997-1.46997 3.27997-3.27997s-1.46997-3.27002-3.27997-3.27002c-1.80005 0-3.27002 1.46002-3.27002 3.27002s1.46997 3.27997 3.27002 3.27997z"/><path d="m7.77002 21.39996c1.81 0 3.27997-1.46997 3.27997-3.26996 0-1.81-1.46997-3.28003-3.27997-3.28003-1.80005.00001-3.27002 1.47004-3.27002 3.28003 0 1.79999 1.46997 3.26996 3.27002 3.26996z"/><path d="m16 28.82996c1.81 0 3.28003-1.46997 3.28003-3.27997s-1.47003-3.27002-3.28003-3.27002-3.28003 1.46002-3.28003 3.27002 1.47003 3.27997 3.28003 3.27997z"/><path d="m16 21.39996c1.81 0 3.28003-1.46997 3.28003-3.26996 0-1.81-1.47003-3.28003-3.28003-3.28003s-3.28003 1.47003-3.28003 3.28003c0 1.79999 1.47003 3.26996 3.28003 3.26996z"/><path d="m16 13.97998c1.81 0 3.28003-1.46997 3.28003-3.27997s-1.47003-3.28003-3.28003-3.28003-3.28003 1.47003-3.28003 3.28003 1.47003 3.27997 3.28003 3.27997z"/><path d="m16 6.54999c1.81 0 3.28003-1.47003 3.28003-3.27002 0-1.81-1.47003-3.27997-3.28003-3.27997s-3.28003 1.46997-3.28003 3.27997c0 1.79999 1.47003 3.27002 3.28003 3.27002z"/><path d="m24.22998 28.82996c1.80005 0 3.27002-1.46997 3.27002-3.27997s-1.46997-3.27002-3.27002-3.27002c-1.81 0-3.27997 1.46002-3.27997 3.27002s1.46997 3.27997 3.27997 3.27997z"/><path d="m24.22998 21.39996c1.80005 0 3.27002-1.46997 3.27002-3.26996 0-1.81-1.46997-3.28003-3.27002-3.28003-1.81 0-3.27997 1.47003-3.27997 3.28003 0 1.79999 1.46997 3.26996 3.27997 3.26996z"/><path d="m24.22998 13.97998c1.80005 0 3.27002-1.46997 3.27002-3.27997s-1.46997-3.28003-3.27002-3.28003c-1.81 0-3.27997 1.47003-3.27997 3.28003s1.46997 3.27997 3.27997 3.27997z"/></g></svg>