<svg id="Layer_2" enable-background="new 0 0 32 32" height="512" viewBox="0 0 32 32" width="512" xmlns="http://www.w3.org/2000/svg"><g><path d="m30.95001 29.85999h-.27002v-14.35999c0-.59003-.46997-1.06-1.06-1.06h-4.94c-.58997 0-1.07001.46997-1.07001 1.06v14.35999h-2.59998v-9.10999c0-.59003-.47003-1.06-1.06-1.06h-4.94c-.59003 0-1.07001.46997-1.07001 1.06v9.10999h-2.59998v-16.82001c0-.58997-.48004-1.07001-1.07001-1.07001h-4.92997c-.59003 0-1.07001.48004-1.07001 1.07001v16.82001h-2.13v-28.81c-.01002-1.38001-2.12-1.41999-2.14002 0v29.88c0 .58997.47998 1.07001 1.07001 1.07001h29.88c1.39002-.01001 1.39997-2.13 0-2.14001z"/><path d="m30.67999 10.25c-.12-4.66003-6.94-4.66003-7.07001 0 0 .22998.03003.45996.07001.67999l-3.75 2.02997c-1.13-1.13995-3.08002-1.31995-4.39996-.38l-4.43005-3.52997c.93005-2.22998-.87-4.84998-3.28998-4.79999-1.95001 0-3.53998 1.58997-3.53998 3.53998-.08002 2.76001 3.27997 4.52002 5.5 2.92999l4.40997 3.52002c-.91998 2.23999.87 4.84998 3.29999 4.79999 2.17004.03003 3.92999-2.06 3.45001-4.20001l3.78003-2.03998c2.12 2.15997 6.03998.51001 5.96997-2.54999z"/></g></svg>