<svg id="Layer_2" enable-background="new 0 0 32 32" height="512" viewBox="0 0 32 32" width="512" xmlns="http://www.w3.org/2000/svg"><g><path d="m1.08002 0c-.59003 0-1.07001.47998-1.07001 1.07001v29.85999c.03003.29999.14001.59998.38.79999.20001.16998.44.25.69.27002h29.85999c1.39001-.01001 1.40997-2.12 0-2.13h-.53998l-4.56-16.62c-.12-.47003-.59003-.82001-1.04004-.78003-.48998.01-.90997.34002-1.01995.82l-1.38 5.69-2.82001-10.52002c-.23999-1.02997-1.82001-1.03998-2.06 0l-2.59998 9.82001-1.61005-4.87c-.14996-.44-.52997-.73999-1.02997-.72998-.47002.01001-.88.32001-1.01.77002l-1.07001 3.63995-2.34997-10.38995c-.11005-.49005-.54004-.83001-1.04004-.83001-.48999 0-.91999.33996-1.03998.82l-3.63 15.19v-20.81c-.00001-.59002-.46998-1.07-1.06-1.07z"/></g></svg>