<svg id="Layer_2" enable-background="new 0 0 32 32" viewBox="0 0 32 32" xmlns="http://www.w3.org/2000/svg"><g><path d="m30.92999 29.87h-.65997v-20.84003c0-.38995-.22003-.75-.57001-.94-.35004-.17999-.78003-.15997-1.10004.07001l-13.09997 9.02001-3.25-3.77002c-.29999-.35998-.81-.46997-1.23999-.27997l-8.88001 3.99v-16.04999c0-.59003-.47003-1.07001-1.05999-1.07001-.59003 0-1.07001.47998-1.07001 1.07001v29.85999c0 .58996.47998 1.07 1.07001 1.07h29.85999c.59002 0 1.07-.48004 1.07-1.07001 0-.59002-.47998-1.05999-1.07001-1.05999z"/></g></svg>