<svg id="Layer_2" enable-background="new 0 0 32 32" viewBox="0 0 32 32" xmlns="http://www.w3.org/2000/svg"><g><path d="m14.29004 32c7.88 0 14.28998-6.41003 14.28998-14.29004 0-.58997-.48004-1.06-1.07001-1.06h-3.97998c-.59003 0-1.07001.47003-1.07001 1.06 0 4.51001-3.66998 8.17004-8.16998 8.17004-4.51001 0-8.17004-3.66003-8.17004-8.17004 0-4.5 3.66003-8.16998 8.17004-8.16998.58997 0 1.06-.47998 1.06-1.07001v-3.97998c0-.59003-.47003-1.07001-1.06-1.07001-7.88001 0-14.29004 6.40998-14.29004 14.28998s6.41003 14.29004 14.29004 14.29004z"/><path d="m17.71002 0c-.59003 0-1.06.47998-1.06 1.07001v3.97998c0 .59003.46997 1.07001 1.06 1.07001 4.51001 0 8.16998 3.65997 8.16998 8.16998 0 .59003.47998 1.06 1.07001 1.06h3.97998c.59003 0 1.07001-.46997 1.07001-1.06 0-7.88001-6.40997-14.28998-14.28998-14.28998z"/></g></svg>