<svg id="Layer_2" enable-background="new 0 0 32 32" height="512" viewBox="0 0 32 32" width="512" xmlns="http://www.w3.org/2000/svg"><g><path d="m30.92999 29.87h-28.79999v-4.31h13.91003v1.10999c0 .59003.47998 1.06 1.06 1.06h10.66998c.58997 0 1.07001-.46997 1.07001-1.06v-4.71997c0-.59003-.48004-1.06-1.07001-1.06h-10.66997c-.58002 0-1.06.46997-1.06 1.06v1.46997h-13.91004v-6.34998h8.57001v1.19995c0 .59003.47998 1.06 1.07001 1.06h10.66998c.59003 0 1.06-.46997 1.06-1.06v-4.71997c0-.59003-.46997-1.06-1.06-1.06h-10.66998c-.59003 0-1.07001.46997-1.07001 1.06v1.38h-8.57001v-6.35003h3.24v1.29004c0 .58997.48004 1.06 1.07001 1.06h10.66003c.58997 0 1.07001-.47003 1.07001-1.06v-4.72004c0-.58997-.48004-1.06-1.07001-1.06h-10.66004c-.58996.00001-1.07.47004-1.07 1.06v1.29004h-3.24v-5.37c0-.59002-.46997-1.07-1.05999-1.07-.58997 0-1.07001.47998-1.07001 1.07001v29.85999c0 .58996.48004 1.07 1.07001 1.07h29.85999c.59002 0 1.07-.48004 1.07-1.07001 0-.59002-.47998-1.05999-1.07001-1.05999z"/></g></svg>